<svg xmlns="http://www.w3.org/2000/svg" viewBox="0 0 493.5 186"><defs><style>.cls-1{fill:#17335c;stroke:#fd9b0b;stroke-miterlimit:10;stroke-width:5px;}.cls-2{fill:#f90;}.cls-3{font-size:69px;fill:#fff;font-family:NeoSansIntel, Neo Sans Intel;}</style></defs><title>ext PT- Asset 7</title><g id="Layer_2" data-name="Layer 2"><g id="Layer_1-2" data-name="Layer 1"><rect class="cls-1" x="55" y="2.5" width="436" height="181" rx="12"/><path class="cls-2" d="M54,38.5a9,9,0,0,1,9,9v45a9,9,0,0,1-9,9H9a9,9,0,0,1-9-9v-45a9,9,0,0,1,9-9ZM50.59,49H12.41a1.9,1.9,0,0,0-1.91,1.91V89.09A1.91,1.91,0,0,0,12.41,91H50.59a1.92,1.92,0,0,0,1.91-1.91V50.91A1.91,1.91,0,0,0,50.59,49Z"/><path class="cls-2" d="M127,23.5a9,9,0,0,1,9,9v45a9,9,0,0,1-9,9H82a9,9,0,0,1-9-9v-45a9,9,0,0,1,9-9ZM123.59,34H85.41a1.9,1.9,0,0,0-1.91,1.91V74.09A1.91,1.91,0,0,0,85.41,76h38.18a1.92,1.92,0,0,0,1.91-1.91V35.91A1.91,1.91,0,0,0,123.59,34Z"/><path class="cls-2" d="M110,94.5a9,9,0,0,1,9,9v45a9,9,0,0,1-9,9H65a9,9,0,0,1-9-9v-45a9,9,0,0,1,9-9ZM106.59,105H68.41a1.9,1.9,0,0,0-1.91,1.91v38.18A1.91,1.91,0,0,0,68.41,147h38.18a1.92,1.92,0,0,0,1.91-1.91V106.91A1.91,1.91,0,0,0,106.59,105Z"/><path class="cls-2" d="M54,94.5a9,9,0,0,1,9,9v45a9,9,0,0,1-9,9H9a9,9,0,0,1-9-9v-45a9,9,0,0,1,9-9ZM50.59,105H12.41a1.9,1.9,0,0,0-1.91,1.91v38.18A1.91,1.91,0,0,0,12.41,147H50.59a1.92,1.92,0,0,0,1.91-1.91V106.91A1.91,1.91,0,0,0,50.59,105Z"/><text class="cls-3" transform="translate(145.56 115.17)">Extensions</text></g></g></svg>